<svg xmlns="http://www.w3.org/2000/svg" viewBox="0 0 750 750" width="750" height="750">
<defs>
<linearGradient id="g-green"  x1="0" y1="0" x2="0.2" y2="1"><stop offset="0%" stop-color="#5FAD60"/><stop offset="100%" stop-color="#2E6B35"/></linearGradient>
<linearGradient id="g-yellow" x1="0" y1="0" x2="0.2" y2="1"><stop offset="0%" stop-color="#D4901C"/><stop offset="100%" stop-color="#9A6010"/></linearGradient>
<linearGradient id="g-red"    x1="0" y1="0" x2="0.2" y2="1"><stop offset="0%" stop-color="#CC3C3C"/><stop offset="100%" stop-color="#8C1818"/></linearGradient>
<linearGradient id="g-blue"   x1="0" y1="0" x2="0.2" y2="1"><stop offset="0%" stop-color="#3878B8"/><stop offset="100%" stop-color="#184888"/></linearGradient>
<linearGradient id="g-tile"   x1="0" y1="0" x2="0" y2="1"><stop offset="0%" stop-color="#F0E4C0"/><stop offset="100%" stop-color="#E4D0A4"/></linearGradient>
<linearGradient id="g-safe"   x1="0" y1="0" x2="0" y2="1"><stop offset="0%" stop-color="#F8EED0"/><stop offset="100%" stop-color="#ECD8A0"/></linearGradient>
<linearGradient id="g-hr"     x1="0" y1="0" x2="0" y2="1"><stop offset="0%" stop-color="#ECC0B8"/><stop offset="100%" stop-color="#D8A090"/></linearGradient>
<linearGradient id="g-hg"     x1="0" y1="0" x2="0" y2="1"><stop offset="0%" stop-color="#B0D0A8"/><stop offset="100%" stop-color="#90B888"/></linearGradient>
<linearGradient id="g-hy"     x1="0" y1="0" x2="0" y2="1"><stop offset="0%" stop-color="#ECD8A0"/><stop offset="100%" stop-color="#D8C070"/></linearGradient>
<linearGradient id="g-hb"     x1="0" y1="0" x2="0" y2="1"><stop offset="0%" stop-color="#A8C8E0"/><stop offset="100%" stop-color="#88A8C8"/></linearGradient>
<radialGradient id="sg-green"  cx="35%" cy="30%" r="65%"><stop offset="0%" stop-color="#80C878"/><stop offset="100%" stop-color="#205828"/></radialGradient>
<radialGradient id="sg-yellow" cx="35%" cy="30%" r="65%"><stop offset="0%" stop-color="#E8B848"/><stop offset="100%" stop-color="#785008"/></radialGradient>
<radialGradient id="sg-red"    cx="35%" cy="30%" r="65%"><stop offset="0%" stop-color="#E07070"/><stop offset="100%" stop-color="#701010"/></radialGradient>
<radialGradient id="sg-blue"   cx="35%" cy="30%" r="65%"><stop offset="0%" stop-color="#68A0D8"/><stop offset="100%" stop-color="#102860"/></radialGradient>
<filter id="f-yard"><feDropShadow dx="0" dy="3" stdDeviation="4" flood-color="#00000038"/></filter>
<filter id="f-ctr"><feDropShadow dx="0" dy="2" stdDeviation="3" flood-color="#00000030"/></filter>
</defs>
<rect width="750" height="750" fill="#B8A070"/>
<rect x="3" y="3" width="744" height="744" rx="16" fill="#E8D8B0"/>
<rect x="52" y="305" width="46" height="46" rx="6" fill="#C0A858"/>
<rect x="52" y="302" width="46" height="46" rx="6" fill="url(#g-safe)"/>
<rect x="52" y="355" width="46" height="46" rx="6" fill="#C0A050"/>
<rect x="52" y="352" width="46" height="46" rx="6" fill="url(#g-tile)"/>
<rect x="52" y="405" width="46" height="46" rx="6" fill="#C0A050"/>
<rect x="52" y="402" width="46" height="46" rx="6" fill="url(#g-tile)"/>
<rect x="102" y="405" width="46" height="46" rx="6" fill="#C0A050"/>
<rect x="102" y="402" width="46" height="46" rx="6" fill="url(#g-tile)"/>
<rect x="152" y="405" width="46" height="46" rx="6" fill="#C0A050"/>
<rect x="152" y="402" width="46" height="46" rx="6" fill="url(#g-tile)"/>
<rect x="202" y="405" width="46" height="46" rx="6" fill="#C0A050"/>
<rect x="202" y="402" width="46" height="46" rx="6" fill="url(#g-tile)"/>
<rect x="252" y="405" width="46" height="46" rx="6" fill="#C0A050"/>
<rect x="252" y="402" width="46" height="46" rx="6" fill="url(#g-tile)"/>
<rect x="302" y="405" width="46" height="46" rx="6" fill="#C0A050"/>
<rect x="302" y="402" width="46" height="46" rx="6" fill="url(#g-tile)"/>
<rect x="302" y="455" width="46" height="46" rx="6" fill="#C0A858"/>
<rect x="302" y="452" width="46" height="46" rx="6" fill="url(#g-safe)"/>
<rect x="302" y="505" width="46" height="46" rx="6" fill="#C0A050"/>
<rect x="302" y="502" width="46" height="46" rx="6" fill="url(#g-tile)"/>
<rect x="302" y="555" width="46" height="46" rx="6" fill="#C0A050"/>
<rect x="302" y="552" width="46" height="46" rx="6" fill="url(#g-tile)"/>
<rect x="302" y="605" width="46" height="46" rx="6" fill="#C0A050"/>
<rect x="302" y="602" width="46" height="46" rx="6" fill="url(#g-tile)"/>
<rect x="302" y="655" width="46" height="46" rx="6" fill="#B898C8"/>
<rect x="302" y="652" width="46" height="46" rx="6" fill="#E8D0F0"/>
<rect x="302" y="705" width="46" height="46" rx="6" fill="#C0A858"/>
<rect x="302" y="702" width="46" height="46" rx="6" fill="url(#g-safe)"/>
<rect x="352" y="705" width="46" height="46" rx="6" fill="#C0A050"/>
<rect x="352" y="702" width="46" height="46" rx="6" fill="url(#g-tile)"/>
<rect x="402" y="705" width="46" height="46" rx="6" fill="#C0A050"/>
<rect x="402" y="702" width="46" height="46" rx="6" fill="url(#g-tile)"/>
<rect x="402" y="655" width="46" height="46" rx="6" fill="#C0A050"/>
<rect x="402" y="652" width="46" height="46" rx="6" fill="url(#g-tile)"/>
<rect x="402" y="605" width="46" height="46" rx="6" fill="#C0A050"/>
<rect x="402" y="602" width="46" height="46" rx="6" fill="url(#g-tile)"/>
<rect x="402" y="555" width="46" height="46" rx="6" fill="#C0A050"/>
<rect x="402" y="552" width="46" height="46" rx="6" fill="url(#g-tile)"/>
<rect x="402" y="505" width="46" height="46" rx="6" fill="#C0A050"/>
<rect x="402" y="502" width="46" height="46" rx="6" fill="url(#g-tile)"/>
<rect x="402" y="455" width="46" height="46" rx="6" fill="#C0A050"/>
<rect x="402" y="452" width="46" height="46" rx="6" fill="url(#g-tile)"/>
<rect x="402" y="405" width="46" height="46" rx="6" fill="#C0A858"/>
<rect x="402" y="402" width="46" height="46" rx="6" fill="url(#g-safe)"/>
<rect x="452" y="405" width="46" height="46" rx="6" fill="#C0A050"/>
<rect x="452" y="402" width="46" height="46" rx="6" fill="url(#g-tile)"/>
<rect x="502" y="405" width="46" height="46" rx="6" fill="#C0A050"/>
<rect x="502" y="402" width="46" height="46" rx="6" fill="url(#g-tile)"/>
<rect x="552" y="405" width="46" height="46" rx="6" fill="#C0A050"/>
<rect x="552" y="402" width="46" height="46" rx="6" fill="url(#g-tile)"/>
<rect x="602" y="405" width="46" height="46" rx="6" fill="#B898C8"/>
<rect x="602" y="402" width="46" height="46" rx="6" fill="#E8D0F0"/>
<rect x="652" y="405" width="46" height="46" rx="6" fill="#C0A858"/>
<rect x="652" y="402" width="46" height="46" rx="6" fill="url(#g-safe)"/>
<rect x="702" y="405" width="46" height="46" rx="6" fill="#C0A050"/>
<rect x="702" y="402" width="46" height="46" rx="6" fill="url(#g-tile)"/>
<rect x="702" y="355" width="46" height="46" rx="6" fill="#C0A050"/>
<rect x="702" y="352" width="46" height="46" rx="6" fill="url(#g-tile)"/>
<rect x="702" y="305" width="46" height="46" rx="6" fill="#C0A050"/>
<rect x="702" y="302" width="46" height="46" rx="6" fill="url(#g-tile)"/>
<rect x="652" y="305" width="46" height="46" rx="6" fill="#C0A050"/>
<rect x="652" y="302" width="46" height="46" rx="6" fill="url(#g-tile)"/>
<rect x="602" y="305" width="46" height="46" rx="6" fill="#C0A050"/>
<rect x="602" y="302" width="46" height="46" rx="6" fill="url(#g-tile)"/>
<rect x="552" y="305" width="46" height="46" rx="6" fill="#C0A050"/>
<rect x="552" y="302" width="46" height="46" rx="6" fill="url(#g-tile)"/>
<rect x="502" y="305" width="46" height="46" rx="6" fill="#C0A050"/>
<rect x="502" y="302" width="46" height="46" rx="6" fill="url(#g-tile)"/>
<rect x="452" y="305" width="46" height="46" rx="6" fill="#C0A858"/>
<rect x="452" y="302" width="46" height="46" rx="6" fill="url(#g-safe)"/>
<rect x="402" y="305" width="46" height="46" rx="6" fill="#C0A050"/>
<rect x="402" y="302" width="46" height="46" rx="6" fill="url(#g-tile)"/>
<rect x="402" y="255" width="46" height="46" rx="6" fill="#C0A050"/>
<rect x="402" y="252" width="46" height="46" rx="6" fill="url(#g-tile)"/>
<rect x="402" y="205" width="46" height="46" rx="6" fill="#C0A050"/>
<rect x="402" y="202" width="46" height="46" rx="6" fill="url(#g-tile)"/>
<rect x="402" y="155" width="46" height="46" rx="6" fill="#B898C8"/>
<rect x="402" y="152" width="46" height="46" rx="6" fill="#E8D0F0"/>
<rect x="402" y="105" width="46" height="46" rx="6" fill="#C0A858"/>
<rect x="402" y="102" width="46" height="46" rx="6" fill="url(#g-safe)"/>
<rect x="402" y="55" width="46" height="46" rx="6" fill="#C0A050"/>
<rect x="402" y="52" width="46" height="46" rx="6" fill="url(#g-tile)"/>
<rect x="402" y="5" width="46" height="46" rx="6" fill="#C0A050"/>
<rect x="402" y="2" width="46" height="46" rx="6" fill="url(#g-tile)"/>
<rect x="352" y="5" width="46" height="46" rx="6" fill="#C0A050"/>
<rect x="352" y="2" width="46" height="46" rx="6" fill="url(#g-tile)"/>
<rect x="302" y="5" width="46" height="46" rx="6" fill="#C0A050"/>
<rect x="302" y="2" width="46" height="46" rx="6" fill="url(#g-tile)"/>
<rect x="302" y="55" width="46" height="46" rx="6" fill="#C0A050"/>
<rect x="302" y="52" width="46" height="46" rx="6" fill="url(#g-tile)"/>
<rect x="302" y="105" width="46" height="46" rx="6" fill="#C0A050"/>
<rect x="302" y="102" width="46" height="46" rx="6" fill="url(#g-tile)"/>
<rect x="302" y="155" width="46" height="46" rx="6" fill="#C0A050"/>
<rect x="302" y="152" width="46" height="46" rx="6" fill="url(#g-tile)"/>
<rect x="302" y="205" width="46" height="46" rx="6" fill="#C0A858"/>
<rect x="302" y="202" width="46" height="46" rx="6" fill="url(#g-safe)"/>
<rect x="302" y="255" width="46" height="46" rx="6" fill="#C0A050"/>
<rect x="302" y="252" width="46" height="46" rx="6" fill="url(#g-tile)"/>
<rect x="302" y="305" width="46" height="46" rx="6" fill="#C0A050"/>
<rect x="302" y="302" width="46" height="46" rx="6" fill="url(#g-tile)"/>
<rect x="252" y="305" width="46" height="46" rx="6" fill="#C0A050"/>
<rect x="252" y="302" width="46" height="46" rx="6" fill="url(#g-tile)"/>
<rect x="202" y="305" width="46" height="46" rx="6" fill="#C0A050"/>
<rect x="202" y="302" width="46" height="46" rx="6" fill="url(#g-tile)"/>
<rect x="152" y="305" width="46" height="46" rx="6" fill="#C0A050"/>
<rect x="152" y="302" width="46" height="46" rx="6" fill="url(#g-tile)"/>
<rect x="102" y="305" width="46" height="46" rx="6" fill="#C0A050"/>
<rect x="102" y="302" width="46" height="46" rx="6" fill="url(#g-tile)"/>
<polygon points="75.0,315.0 77.5,321.6 84.5,321.9 79.0,326.3 80.9,333.1 75.0,329.2 69.1,333.1 71.0,326.3 65.5,321.9 72.5,321.6" fill="#D4A843"/>
<polygon points="475.0,315.0 477.5,321.6 484.5,321.9 479.0,326.3 480.9,333.1 475.0,329.2 469.1,333.1 471.0,326.3 465.5,321.9 472.5,321.6" fill="#D4A843"/>
<polygon points="425.0,115.0 427.5,121.6 434.5,121.9 429.0,126.3 430.9,133.1 425.0,129.2 419.1,133.1 421.0,126.3 415.5,121.9 422.5,121.6" fill="#D4A843"/>
<polygon points="325.0,465.0 327.5,471.6 334.5,471.9 329.0,476.3 330.9,483.1 325.0,479.2 319.1,483.1 321.0,476.3 315.5,471.9 322.5,471.6" fill="#D4A843"/>
<polygon points="325.0,715.0 327.5,721.6 334.5,721.9 329.0,726.3 330.9,733.1 325.0,729.2 319.1,733.1 321.0,726.3 315.5,721.9 322.5,721.6" fill="#D4A843"/>
<polygon points="325.0,215.0 327.5,221.6 334.5,221.9 329.0,226.3 330.9,233.1 325.0,229.2 319.1,233.1 321.0,226.3 315.5,221.9 322.5,221.6" fill="#D4A843"/>
<polygon points="425.0,415.0 427.5,421.6 434.5,421.9 429.0,426.3 430.9,433.1 425.0,429.2 419.1,433.1 421.0,426.3 415.5,421.9 422.5,421.6" fill="#D4A843"/>
<polygon points="675.0,415.0 677.5,421.6 684.5,421.9 679.0,426.3 680.9,433.1 675.0,429.2 669.1,433.1 671.0,426.3 665.5,421.9 672.5,421.6" fill="#D4A843"/>
<text x="625" y="433" font-size="18" text-anchor="middle" font-family="Arial" fill="#703890">⚡</text>
<text x="325" y="683" font-size="18" text-anchor="middle" font-family="Arial" fill="#703890">⚡</text>
<text x="425" y="183" font-size="18" text-anchor="middle" font-family="Arial" fill="#703890">⚡</text>
<rect x="352" y="55" width="46" height="46" rx="6" fill="#A06060"/>
<rect x="352" y="52" width="46" height="46" rx="6" fill="url(#g-hr)"/>
<text x="375" y="82" font-size="14" text-anchor="middle" font-family="Arial" fill="#A0302890">▲</text>
<rect x="352" y="105" width="46" height="46" rx="6" fill="#A06060"/>
<rect x="352" y="102" width="46" height="46" rx="6" fill="url(#g-hr)"/>
<text x="375" y="132" font-size="14" text-anchor="middle" font-family="Arial" fill="#A0302890">▲</text>
<rect x="352" y="155" width="46" height="46" rx="6" fill="#A06060"/>
<rect x="352" y="152" width="46" height="46" rx="6" fill="url(#g-hr)"/>
<text x="375" y="182" font-size="14" text-anchor="middle" font-family="Arial" fill="#A0302890">▲</text>
<rect x="352" y="205" width="46" height="46" rx="6" fill="#A06060"/>
<rect x="352" y="202" width="46" height="46" rx="6" fill="url(#g-hr)"/>
<text x="375" y="232" font-size="14" text-anchor="middle" font-family="Arial" fill="#A0302890">▲</text>
<rect x="352" y="255" width="46" height="46" rx="6" fill="#A06060"/>
<rect x="352" y="252" width="46" height="46" rx="6" fill="url(#g-hr)"/>
<text x="375" y="282" font-size="14" text-anchor="middle" font-family="Arial" fill="#A0302890">▲</text>
<rect x="452" y="355" width="46" height="46" rx="6" fill="#608060"/>
<rect x="452" y="352" width="46" height="46" rx="6" fill="url(#g-hg)"/>
<text x="475" y="382" font-size="14" text-anchor="middle" font-family="Arial" fill="#20682090">▶</text>
<rect x="502" y="355" width="46" height="46" rx="6" fill="#608060"/>
<rect x="502" y="352" width="46" height="46" rx="6" fill="url(#g-hg)"/>
<text x="525" y="382" font-size="14" text-anchor="middle" font-family="Arial" fill="#20682090">▶</text>
<rect x="552" y="355" width="46" height="46" rx="6" fill="#608060"/>
<rect x="552" y="352" width="46" height="46" rx="6" fill="url(#g-hg)"/>
<text x="575" y="382" font-size="14" text-anchor="middle" font-family="Arial" fill="#20682090">▶</text>
<rect x="602" y="355" width="46" height="46" rx="6" fill="#608060"/>
<rect x="602" y="352" width="46" height="46" rx="6" fill="url(#g-hg)"/>
<text x="625" y="382" font-size="14" text-anchor="middle" font-family="Arial" fill="#20682090">▶</text>
<rect x="652" y="355" width="46" height="46" rx="6" fill="#608060"/>
<rect x="652" y="352" width="46" height="46" rx="6" fill="url(#g-hg)"/>
<text x="675" y="382" font-size="14" text-anchor="middle" font-family="Arial" fill="#20682090">▶</text>
<rect x="352" y="455" width="46" height="46" rx="6" fill="#908040"/>
<rect x="352" y="452" width="46" height="46" rx="6" fill="url(#g-hy)"/>
<text x="375" y="482" font-size="14" text-anchor="middle" font-family="Arial" fill="#90680090">▼</text>
<rect x="352" y="505" width="46" height="46" rx="6" fill="#908040"/>
<rect x="352" y="502" width="46" height="46" rx="6" fill="url(#g-hy)"/>
<text x="375" y="532" font-size="14" text-anchor="middle" font-family="Arial" fill="#90680090">▼</text>
<rect x="352" y="555" width="46" height="46" rx="6" fill="#908040"/>
<rect x="352" y="552" width="46" height="46" rx="6" fill="url(#g-hy)"/>
<text x="375" y="582" font-size="14" text-anchor="middle" font-family="Arial" fill="#90680090">▼</text>
<rect x="352" y="605" width="46" height="46" rx="6" fill="#908040"/>
<rect x="352" y="602" width="46" height="46" rx="6" fill="url(#g-hy)"/>
<text x="375" y="632" font-size="14" text-anchor="middle" font-family="Arial" fill="#90680090">▼</text>
<rect x="352" y="655" width="46" height="46" rx="6" fill="#908040"/>
<rect x="352" y="652" width="46" height="46" rx="6" fill="url(#g-hy)"/>
<text x="375" y="682" font-size="14" text-anchor="middle" font-family="Arial" fill="#90680090">▼</text>
<rect x="52" y="355" width="46" height="46" rx="6" fill="#607090"/>
<rect x="52" y="352" width="46" height="46" rx="6" fill="url(#g-hb)"/>
<text x="75" y="382" font-size="14" text-anchor="middle" font-family="Arial" fill="#10589090">◀</text>
<rect x="102" y="355" width="46" height="46" rx="6" fill="#607090"/>
<rect x="102" y="352" width="46" height="46" rx="6" fill="url(#g-hb)"/>
<text x="125" y="382" font-size="14" text-anchor="middle" font-family="Arial" fill="#10589090">◀</text>
<rect x="152" y="355" width="46" height="46" rx="6" fill="#607090"/>
<rect x="152" y="352" width="46" height="46" rx="6" fill="url(#g-hb)"/>
<text x="175" y="382" font-size="14" text-anchor="middle" font-family="Arial" fill="#10589090">◀</text>
<rect x="202" y="355" width="46" height="46" rx="6" fill="#607090"/>
<rect x="202" y="352" width="46" height="46" rx="6" fill="url(#g-hb)"/>
<text x="225" y="382" font-size="14" text-anchor="middle" font-family="Arial" fill="#10589090">◀</text>
<rect x="252" y="355" width="46" height="46" rx="6" fill="#607090"/>
<rect x="252" y="352" width="46" height="46" rx="6" fill="url(#g-hb)"/>
<text x="275" y="382" font-size="14" text-anchor="middle" font-family="Arial" fill="#10589090">◀</text>
<rect x="4" y="9" width="292" height="292" rx="16" fill="#1A5025" filter="url(#f-yard)"/>
<rect x="4" y="4" width="292" height="292" rx="16" fill="url(#g-green)"/>
<rect x="26" y="26" width="248" height="248" rx="10" fill="rgba(0,0,0,0.12)"/>
<circle cx="95" cy="95" r="23" fill="#1A5025" opacity="0.55"/>
<circle cx="95" cy="95" r="20" fill="url(#sg-green)"/>
<circle cx="95" cy="95" r="9" fill="rgba(0,0,0,0.22)"/>
<ellipse cx="90" cy="90" rx="5" ry="4" fill="rgba(255,255,255,0.38)"/>
<circle cx="205" cy="95" r="23" fill="#1A5025" opacity="0.55"/>
<circle cx="205" cy="95" r="20" fill="url(#sg-green)"/>
<circle cx="205" cy="95" r="9" fill="rgba(0,0,0,0.22)"/>
<ellipse cx="200" cy="90" rx="5" ry="4" fill="rgba(255,255,255,0.38)"/>
<circle cx="95" cy="205" r="23" fill="#1A5025" opacity="0.55"/>
<circle cx="95" cy="205" r="20" fill="url(#sg-green)"/>
<circle cx="95" cy="205" r="9" fill="rgba(0,0,0,0.22)"/>
<ellipse cx="90" cy="200" rx="5" ry="4" fill="rgba(255,255,255,0.38)"/>
<circle cx="205" cy="205" r="23" fill="#1A5025" opacity="0.55"/>
<circle cx="205" cy="205" r="20" fill="url(#sg-green)"/>
<circle cx="205" cy="205" r="9" fill="rgba(0,0,0,0.22)"/>
<ellipse cx="200" cy="200" rx="5" ry="4" fill="rgba(255,255,255,0.38)"/>
<rect x="454" y="9" width="292" height="292" rx="16" fill="#704808" filter="url(#f-yard)"/>
<rect x="454" y="4" width="292" height="292" rx="16" fill="url(#g-yellow)"/>
<rect x="476" y="26" width="248" height="248" rx="10" fill="rgba(0,0,0,0.12)"/>
<circle cx="545" cy="95" r="23" fill="#704808" opacity="0.55"/>
<circle cx="545" cy="95" r="20" fill="url(#sg-yellow)"/>
<circle cx="545" cy="95" r="9" fill="rgba(0,0,0,0.22)"/>
<ellipse cx="540" cy="90" rx="5" ry="4" fill="rgba(255,255,255,0.38)"/>
<circle cx="655" cy="95" r="23" fill="#704808" opacity="0.55"/>
<circle cx="655" cy="95" r="20" fill="url(#sg-yellow)"/>
<circle cx="655" cy="95" r="9" fill="rgba(0,0,0,0.22)"/>
<ellipse cx="650" cy="90" rx="5" ry="4" fill="rgba(255,255,255,0.38)"/>
<circle cx="545" cy="205" r="23" fill="#704808" opacity="0.55"/>
<circle cx="545" cy="205" r="20" fill="url(#sg-yellow)"/>
<circle cx="545" cy="205" r="9" fill="rgba(0,0,0,0.22)"/>
<ellipse cx="540" cy="200" rx="5" ry="4" fill="rgba(255,255,255,0.38)"/>
<circle cx="655" cy="205" r="23" fill="#704808" opacity="0.55"/>
<circle cx="655" cy="205" r="20" fill="url(#sg-yellow)"/>
<circle cx="655" cy="205" r="9" fill="rgba(0,0,0,0.22)"/>
<ellipse cx="650" cy="200" rx="5" ry="4" fill="rgba(255,255,255,0.38)"/>
<rect x="4" y="459" width="292" height="292" rx="16" fill="#701010" filter="url(#f-yard)"/>
<rect x="4" y="454" width="292" height="292" rx="16" fill="url(#g-red)"/>
<rect x="26" y="476" width="248" height="248" rx="10" fill="rgba(0,0,0,0.12)"/>
<circle cx="95" cy="545" r="23" fill="#701010" opacity="0.55"/>
<circle cx="95" cy="545" r="20" fill="url(#sg-red)"/>
<circle cx="95" cy="545" r="9" fill="rgba(0,0,0,0.22)"/>
<ellipse cx="90" cy="540" rx="5" ry="4" fill="rgba(255,255,255,0.38)"/>
<circle cx="205" cy="545" r="23" fill="#701010" opacity="0.55"/>
<circle cx="205" cy="545" r="20" fill="url(#sg-red)"/>
<circle cx="205" cy="545" r="9" fill="rgba(0,0,0,0.22)"/>
<ellipse cx="200" cy="540" rx="5" ry="4" fill="rgba(255,255,255,0.38)"/>
<circle cx="95" cy="655" r="23" fill="#701010" opacity="0.55"/>
<circle cx="95" cy="655" r="20" fill="url(#sg-red)"/>
<circle cx="95" cy="655" r="9" fill="rgba(0,0,0,0.22)"/>
<ellipse cx="90" cy="650" rx="5" ry="4" fill="rgba(255,255,255,0.38)"/>
<circle cx="205" cy="655" r="23" fill="#701010" opacity="0.55"/>
<circle cx="205" cy="655" r="20" fill="url(#sg-red)"/>
<circle cx="205" cy="655" r="9" fill="rgba(0,0,0,0.22)"/>
<ellipse cx="200" cy="650" rx="5" ry="4" fill="rgba(255,255,255,0.38)"/>
<rect x="454" y="459" width="292" height="292" rx="16" fill="#0C3060" filter="url(#f-yard)"/>
<rect x="454" y="454" width="292" height="292" rx="16" fill="url(#g-blue)"/>
<rect x="476" y="476" width="248" height="248" rx="10" fill="rgba(0,0,0,0.12)"/>
<circle cx="545" cy="545" r="23" fill="#0C3060" opacity="0.55"/>
<circle cx="545" cy="545" r="20" fill="url(#sg-blue)"/>
<circle cx="545" cy="545" r="9" fill="rgba(0,0,0,0.22)"/>
<ellipse cx="540" cy="540" rx="5" ry="4" fill="rgba(255,255,255,0.38)"/>
<circle cx="655" cy="545" r="23" fill="#0C3060" opacity="0.55"/>
<circle cx="655" cy="545" r="20" fill="url(#sg-blue)"/>
<circle cx="655" cy="545" r="9" fill="rgba(0,0,0,0.22)"/>
<ellipse cx="650" cy="540" rx="5" ry="4" fill="rgba(255,255,255,0.38)"/>
<circle cx="545" cy="655" r="23" fill="#0C3060" opacity="0.55"/>
<circle cx="545" cy="655" r="20" fill="url(#sg-blue)"/>
<circle cx="545" cy="655" r="9" fill="rgba(0,0,0,0.22)"/>
<ellipse cx="540" cy="650" rx="5" ry="4" fill="rgba(255,255,255,0.38)"/>
<circle cx="655" cy="655" r="23" fill="#0C3060" opacity="0.55"/>
<circle cx="655" cy="655" r="20" fill="url(#sg-blue)"/>
<circle cx="655" cy="655" r="9" fill="rgba(0,0,0,0.22)"/>
<ellipse cx="650" cy="650" rx="5" ry="4" fill="rgba(255,255,255,0.38)"/>
<rect x="300" y="300" width="150" height="150" rx="6" fill="white" filter="url(#f-ctr)"/>
<polygon points="300,300 450,300 375,375" fill="#C83028"/>
<polygon points="450,300 450,450 375,375" fill="#2E7830"/>
<polygon points="450,450 300,450 375,375" fill="#C08018"/>
<polygon points="300,450 300,300 375,375" fill="#1858A8"/>
<line x1="375" y1="375" x2="300" y2="300" stroke="white" stroke-width="2"/>
<line x1="375" y1="375" x2="450" y2="300" stroke="white" stroke-width="2"/>
<line x1="375" y1="375" x2="450" y2="450" stroke="white" stroke-width="2"/>
<line x1="375" y1="375" x2="300" y2="450" stroke="white" stroke-width="2"/>
<circle cx="375" cy="375" r="36" fill="white" filter="url(#f-ctr)"/>
<path d="M375,375 L375.0,339.0 A36,36 0 0,1 411.0,375.0 Z" fill="#C83028"/>
<path d="M375,375 L411.0,375.0 A36,36 0 0,1 375.0,411.0 Z" fill="#2E7830"/>
<path d="M375,375 L375.0,411.0 A36,36 0 0,1 339.0,375.0 Z" fill="#C08018"/>
<path d="M375,375 L339.0,375.0 A36,36 0 0,1 375.0,339.0 Z" fill="#1858A8"/>
<circle cx="375" cy="375" r="14" fill="white"/>
<polygon points="375.0,365.0 377.4,371.8 384.5,371.9 378.8,376.2 380.9,383.1 375.0,379.0 369.1,383.1 371.2,376.2 365.5,371.9 372.6,371.8" fill="#D4A843"/>
<rect x="3" y="3" width="744" height="744" rx="16" fill="none" stroke="#A89050" stroke-width="2"/>
</svg>