<svg xmlns="http://www.w3.org/2000/svg" viewBox="0 0 80 100" width="80" height="100">
  <defs>
    <radialGradient id="h" cx="30%" cy="25%" r="65%">
      <stop offset="0%" stop-color="#F0C0C0"/>
      <stop offset="25%" stop-color="#E88080"/>
      <stop offset="60%" stop-color="#CC3838"/>
      <stop offset="100%" stop-color="#7A1010"/>
    </radialGradient>
    <radialGradient id="b" cx="35%" cy="28%" r="65%">
      <stop offset="0%" stop-color="#E88080"/>
      <stop offset="55%" stop-color="#CC3838"/>
      <stop offset="100%" stop-color="#7A1010"/>
    </radialGradient>
    <linearGradient id="base" x1="0" y1="0" x2="0" y2="1">
      <stop offset="0%" stop-color="#CC3838"/>
      <stop offset="100%" stop-color="#7A1010"/>
    </linearGradient>
    <filter id="sh"><feDropShadow dx="0" dy="3" stdDeviation="3" flood-color="#00000055"/></filter>
  </defs>
  <g filter="url(#sh)">
    <ellipse cx="40" cy="90" rx="26" ry="8" fill="#7A1010" opacity="0.5"/>
    <ellipse cx="40" cy="87" rx="24" ry="7" fill="url(#base)"/>
    <ellipse cx="34" cy="84" rx="10" ry="3" fill="rgba(255,255,255,0.2)"/>
    <path d="M30,76 Q26,66 29,56 L34,53 Q37,51 40,51 Q43,51 46,53 L51,56 Q54,66 50,76 Q45,79 40,79 Q35,79 30,76 Z" fill="url(#b)"/>
    <path d="M31,69 Q29,63 31,58 Q34,55 38,54" fill="none" stroke="rgba(255,255,255,0.28)" stroke-width="1.8" stroke-linecap="round"/>
    <rect x="34" y="43" width="12" height="13" rx="3" fill="#7A1010"/>
    <circle cx="40" cy="31" r="20" fill="#7A1010" opacity="0.35"/>
    <circle cx="40" cy="30" r="19" fill="url(#h)"/>
    <ellipse cx="33" cy="23" rx="6" ry="4.5" fill="rgba(255,255,255,0.55)"/>
    <circle cx="40" cy="30" r="19" fill="none" stroke="#7A1010" stroke-width="1" opacity="0.4"/>
  </g>
</svg>